<?xml version="1.0" encoding="UTF-8" standalone="yes"?>
<svg
   xmlns="http://www.w3.org/2000/svg"
   xmlns:inkscape="http://www.inkscape.org/namespaces/inkscape"
   width="32"
   height="40"
   viewBox="0 0 8.4666665 10.583334">
  <g
     id="layer1"
     transform="translate(0,-286.41665)">
    <g
       id="g4525"
       transform="matrix(0.00925295,0,0,0.00879014,-0.35241315,286.08263)">
      <g
         style="fill:#21bcf3;fill-opacity:1;stroke:none"
         id="g6"
         transform="matrix(0.1,0,0,-0.1,0,1280)">
        <path
           style="fill:#21bcf3;fill-opacity:1"
           id="path4"
           d="m 4890,12357 c -35,-34 -52,-48 -37,-31 32,36 33,40 6,40 -40,0 -568,-573 -1115,-1211 C 1786,8873 611,6917 414,5610 369,5315 370,4882 416,4520 593,3121 1338,1899 2481,1133 3219,638 4066,380 4955,380 c 962,0 1862,298 2655,879 760,557 1373,1405 1671,2316 232,707 309,1483 204,2045 -131,697 -488,1511 -1093,2490 -177,287 -645,981 -754,1120 l -20,25 21,3 c 12,2 21,5 21,8 0,7 -243,335 -399,539 -296,387 -564,722 -860,1075 -534,635 -1289,1474 -1330,1476 -10,1 -23,4 -30,8 -20,13 -12,-7 16,-38 15,-17 -2,-3 -37,31 l -65,63 z"
           inkscape:connector-curvature="0" />
      </g>
      <path
         id="path4-6"
         d="m 484.29903,1097.756 c -177.29158,0 -323.74988,-146.04236 -323.74988,-328.59655 0,-20.86261 17.98692,-39.11877 38.54165,-39.11877 20.55476,0 38.54166,18.25616 38.54166,39.11877 0,138.21812 110.48687,250.35925 246.66657,250.35925 20.55475,0 38.54165,18.256 38.54165,39.1187 0,20.8621 -17.9869,39.1186 -38.54165,39.1186 z"
         style="fill:#fff;stroke-width:0"
         inkscape:connector-curvature="0" />
    </g>
  </g>
</svg>
